<svg width="71" height="16" viewBox="0 0 71 16" fill="none" xmlns="http://www.w3.org/2000/svg">
<path d="M70.2107 8.57923V15.1306H67.6481V9.24774C67.6481 7.99985 67.1356 7.33134 65.9323 7.33134C64.9741 7.33134 64.2164 7.7993 63.8599 8.49009C63.8599 8.64608 63.8822 9.00262 63.8822 9.22545V15.1306H61.3195V9.06947C61.3195 8.02213 60.7402 7.33134 59.6483 7.33134C58.7346 7.33134 57.9993 7.73245 57.5536 8.40096V15.1306H54.991V5.10297H57.5536V6.21715C58.2667 5.41494 59.4477 4.9247 60.6956 4.9247C62.2332 4.9247 63.2582 5.61549 63.6148 6.52913C64.3278 5.59321 65.442 4.9247 67.0019 4.9247C68.8292 4.9247 70.2107 5.83833 70.2107 8.57923Z" fill="#1E1E1E"/>
<path d="M45.4559 7.68788L44.8097 5.81605C45.6788 5.30352 47.0381 4.85785 48.3528 4.85785C51.3166 4.85785 52.3639 6.37314 52.3639 9.0249V15.1306H50.1355V13.9719C49.6007 14.7295 48.5311 15.2643 47.1718 15.2643C45.3445 15.2643 44.0298 14.1279 44.0298 12.1892C44.0298 9.9831 45.6565 8.93577 47.6843 8.93577C48.5757 8.93577 49.467 9.22546 49.9573 9.582C50.0241 7.91072 49.5784 6.99709 48.0854 6.99709C46.9267 6.99709 46.1913 7.35362 45.4559 7.68788ZM48.0186 13.1028C49.0882 13.1028 49.6453 12.6349 49.9573 12.1892V11.1641C49.5116 10.8299 48.9322 10.6739 48.1968 10.6739C47.3501 10.6739 46.5924 11.075 46.5924 11.9218C46.5924 12.6794 47.2164 13.1028 48.0186 13.1028Z" fill="#1E1E1E"/>
<path d="M41.0521 12.3229L41.7875 14.1279C40.7847 14.9747 39.3585 15.3758 37.9547 15.3758C34.7235 15.3758 32.562 13.2811 32.562 10.1168C32.562 7.19764 34.5675 4.85785 37.8655 4.85785C40.4504 4.85785 42.612 6.7074 42.612 9.51515C42.612 10.1391 42.5674 10.5179 42.456 10.8967H35.2138C35.4366 12.412 36.6399 13.2365 38.2221 13.2365C39.4477 13.2365 40.4727 12.7908 41.0521 12.3229ZM37.7541 6.99709C36.2165 6.99709 35.392 7.86615 35.1246 9.18089H40.0493C40.0716 7.95529 39.2248 6.99709 37.7541 6.99709Z" fill="#1E1E1E"/>
<path d="M25.3249 11.3201V9.8345C25.3249 8.5505 24.284 7.50961 23 7.50961L23 5.10297H31.1187V7.50961H27.8875V11.1641C27.8875 12.256 28.2441 12.9691 29.0908 12.9691C29.7816 12.9691 30.2719 12.6572 30.6284 12.3897L31.4083 14.373C30.8067 14.8632 29.7371 15.3535 28.4446 15.3535C26.1717 15.3535 25.3249 13.8828 25.3249 11.3201Z" fill="#1E1E1E"/>
<path d="M21.6044 12C20.7354 12 20 12.5794 20 13.493C20 14.5181 20.7354 15.0974 21.6044 15.0974C22.3398 15.0974 23.0752 14.5181 23.0752 13.493C23.0752 12.5794 22.3398 12 21.6044 12Z" fill="#18CB6C"/>
<path d="M2.32673 15.1306V9.83635C2.32673 8.55133 1.28501 7.50962 -7.62939e-06 7.50962V5.10298H2.32673H4.88936V15.1306H2.32673ZM2.05932 1.49302C2.05932 0.579383 2.79469 7.62939e-06 3.66375 7.62939e-06C4.39911 7.62939e-06 5.13448 0.579383 5.13448 1.49302C5.13448 2.51807 4.39911 3.09744 3.66375 3.09744C2.79469 3.09744 2.05932 2.51807 2.05932 1.49302Z" fill="#1E1E1E"/>
<path d="M8.12816 15.1306V5.10298H10.6908V6.10574C11.2924 5.45951 12.3621 4.92471 13.5654 4.92471C16.0166 4.92471 17.6879 6.10574 17.6879 9.24775V15.1306H15.1252V9.69342C15.1252 8.08899 14.3007 7.33135 12.8746 7.33135C12.0055 7.33135 11.2924 7.68789 10.6908 8.28955V15.1306H8.12816Z" fill="#1E1E1E"/>
</svg>
